<?xml version="1.0" standalone="no"?>
<!DOCTYPE svg PUBLIC "-//W3C//DTD SVG 20010904//EN"
 "http://www.w3.org/TR/2001/REC-SVG-20010904/DTD/svg10.dtd">
<svg version="1.0" xmlns="http://www.w3.org/2000/svg"
 width="700.000000pt" height="700.000000pt" viewBox="0 0 700.000000 700.000000"
 preserveAspectRatio="xMidYMid meet">
<metadata>
Created by potrace 1.14, written by Peter Selinger 2001-2017
</metadata>
<g transform="translate(0.000000,700.000000) scale(0.100000,-0.100000)"
fill="#000000" stroke="none">
<path d="M3337 6994 c-1 -1 -43 -4 -94 -8 -50 -3 -97 -8 -105 -10 -7 -3 -31
-7 -53 -10 -128 -16 -334 -85 -498 -166 -93 -47 -281 -163 -307 -190 -3 -3
-34 -30 -70 -60 -223 -187 -414 -448 -527 -720 -31 -73 -45 -110 -47 -120 -1
-3 -4 -9 -8 -15 -6 -9 -63 -232 -73 -284 -2 -13 -7 -49 -10 -80 -4 -31 -9 -65
-13 -76 -3 -11 -6 -217 -7 -457 -1 -241 -4 -440 -7 -443 -3 -3 -59 -7 -124 -9
-98 -3 -127 -7 -167 -26 -53 -25 -132 -107 -155 -160 -41 -96 -42 -110 -39
-980 1 -459 6 -846 10 -860 4 -13 9 -41 12 -62 17 -111 81 -300 147 -431 125
-250 319 -476 576 -671 35 -27 66 -54 68 -60 2 -6 -26 -70 -64 -141 -38 -72
-101 -193 -142 -270 -40 -77 -92 -176 -115 -220 -23 -44 -71 -134 -105 -200
-35 -66 -78 -149 -97 -184 -19 -35 -32 -66 -29 -68 4 -5 82 34 206 104 19 11
71 39 115 63 44 24 150 81 235 128 195 106 236 128 335 182 44 24 100 54 125
68 25 14 91 49 147 79 57 29 126 67 153 83 28 17 53 30 56 30 2 0 45 23 96 52
l91 51 791 2 c435 1 801 5 812 8 12 3 37 8 55 11 74 12 126 26 231 61 504 165
914 554 1104 1047 44 112 90 303 99 404 8 92 8 1534 0 1627 -11 129 -65 222
-170 292 l-59 39 -125 4 c-69 2 -127 5 -130 7 -2 3 -5 204 -7 447 -1 244 -5
459 -8 478 -3 19 -8 53 -11 75 -4 22 -9 54 -11 70 -25 159 -117 413 -208 577
-63 113 -60 109 -153 233 -127 172 -291 331 -445 432 -40 26 -78 53 -85 59 -6
6 -67 38 -135 72 -207 102 -431 168 -638 188 -68 6 -417 13 -423 8z m373 -738
c19 -3 46 -8 60 -10 59 -9 161 -40 235 -71 325 -134 569 -395 679 -725 61
-183 65 -227 63 -690 l-2 -415 -805 2 c-443 2 -1009 3 -1258 3 l-453 0 4 428
c2 235 7 445 10 467 13 76 19 100 44 180 94 293 291 536 558 687 131 74 303
131 440 145 33 3 61 7 63 8 6 5 328 -2 362 -9z m-83 -2679 c150 -45 256 -126
327 -252 68 -119 88 -256 55 -381 -23 -90 -59 -153 -134 -233 l-62 -66 2 -310
c0 -170 -3 -332 -8 -359 -11 -65 -36 -112 -86 -163 -148 -153 -400 -121 -515
64 -44 71 -48 116 -48 455 l0 317 -38 40 c-118 123 -169 244 -164 386 3 99 16
150 61 237 45 87 147 185 237 227 117 56 262 71 373 38z"/>
</g>
</svg>
