<svg xmlns="http://www.w3.org/2000/svg" version="1.1" viewBox="0.00 0.00 673.00 673.00" width="40" height="40">
<path fill="#000000" d="
  M 525.15 254.95
  Q 534.45 255.13 543.76 254.94
  C 548.95 254.83 555.32 258.28 559.42 261.89
  Q 571.63 272.64 571.77 289.26
  C 572.16 336.58 572.83 380.20 572.14 431.26
  Q 571.98 443.16 570.65 451.17
  Q 563.83 492.31 537.32 526.05
  Q 503.03 569.69 448.46 585.54
  Q 430.00 590.91 413.25 590.93
  Q 345.00 591.02 276.75 590.99
  Q 274.54 590.99 271.28 592.75
  Q 198.56 631.97 126.05 671.59
  Q 125.71 671.77 125.37 671.79
  Q 124.91 671.81 124.50 671.77
  A 0.45 0.44 16.3 0 1 124.14 671.12
  L 177.52 569.40
  A 2.54 2.54 0.0 0 0 176.72 566.13
  C 130.50 534.10 98.69 484.98 98.83 427.50
  Q 98.97 366.04 99.03 304.58
  C 99.04 289.85 98.10 275.79 108.99 264.50
  C 115.75 257.48 120.99 254.96 130.93 255.01
  Q 138.45 255.04 145.96 254.98
  Q 146.49 254.97 146.49 254.44
  Q 146.52 224.08 146.50 193.76
  Q 146.48 180.28 146.94 173.77
  C 153.45 80.11 227.84 2.88 323.25 0.53
  C 336.28 0.21 351.88 0.19 364.70 1.72
  C 456.79 12.74 524.75 94.36 524.63 185.75
  Q 524.58 220.08 524.63 254.41
  Q 524.63 254.94 525.15 254.95
  Z
  M 215.05 254.80
  L 455.93 255.22
  A 0.70 0.70 0.0 0 0 456.63 254.52
  L 456.75 186.39
  A 115.71 115.55 -89.9 0 0 341.40 70.48
  L 330.22 70.46
  A 115.71 115.55 -89.9 0 0 214.47 185.97
  L 214.35 254.10
  A 0.70 0.70 0.0 0 0 215.05 254.80
  Z
  M 303.50 418.27
  Q 303.88 446.64 303.43 475.00
  C 303.09 497.15 323.96 513.33 345.35 506.59
  C 355.56 503.37 363.24 495.21 365.87 484.83
  Q 366.95 480.58 366.87 470.37
  Q 366.67 444.43 366.77 418.45
  Q 366.77 417.94 367.17 417.62
  C 379.53 407.54 387.11 394.34 387.07 378.61
  C 386.93 333.97 334.18 310.97 301.08 340.53
  Q 283.24 356.46 284.06 381.36
  C 284.54 395.60 292.45 408.26 303.07 417.36
  Q 303.49 417.72 303.50 418.27
  Z"
/>
</svg>
